<?xml version="1.0" standalone="no"?>
<!DOCTYPE svg PUBLIC "-//W3C//DTD SVG 20010904//EN"
 "http://www.w3.org/TR/2001/REC-SVG-20010904/DTD/svg10.dtd">
<svg version="1.0" xmlns="http://www.w3.org/2000/svg"
 width="300.000000pt" height="198.000000pt" viewBox="0 0 300.000000 198.000000"
 preserveAspectRatio="xMidYMid meet">
<metadata>
Created by potrace 1.10, written by Peter Selinger 2001-2011
</metadata>
<g transform="translate(0.000000,198.000000) scale(0.100000,-0.100000)"
fill="#000000" stroke="none">
<path d="M732 1152 c-9 -7 -12 -49 -10 -178 l3 -169 344 -3 c245 -2 348 1 357
9 19 15 20 319 2 337 -14 14 -674 17 -696 4z m664 -35 c4 -4 8 -77 5 -101 -1
-4 -12 -1 -26 8 -20 13 -45 16 -121 13 -78 -3 -103 0 -131 14 -29 15 -43 16
-82 8 -91 -21 -118 -22 -144 -4 -19 12 -31 14 -44 7 -12 -7 -24 -7 -36 0 -10
5 -30 7 -43 4 -21 -6 -24 -3 -24 19 0 17 7 28 21 33 22 8 617 7 625 -1z m-567
-117 c12 -22 25 -40 28 -40 3 0 3 18 0 40 -4 35 -2 40 14 40 17 0 19 -7 16
-65 -2 -77 -15 -83 -53 -25 -15 22 -29 40 -32 40 -2 0 -2 -18 1 -40 4 -35 2
-40 -14 -40 -17 0 -19 8 -19 65 0 56 2 65 18 65 11 0 27 -16 41 -40z m215 18
c13 -14 15 -23 8 -26 -15 -5 -16 -62 -2 -62 6 0 10 -5 10 -11 0 -6 -10 -9 -22
-7 -19 2 -24 11 -29 48 -6 46 -2 80 10 80 4 0 15 -10 25 -22z m56 4 c0 -13 8
-18 28 -17 25 0 27 -3 30 -47 2 -37 0 -48 -12 -48 -10 0 -16 12 -18 38 -2 20
-7 37 -13 37 -5 0 -11 -17 -13 -37 -2 -25 -8 -38 -18 -38 -11 0 -14 15 -14 65
0 51 3 65 15 65 8 0 15 -8 15 -18z m-122 -24 c7 -7 12 -29 12 -49 l0 -38 -42
2 c-36 2 -44 6 -46 25 -3 18 2 23 27 28 17 4 31 11 31 16 0 6 -14 7 -32 2 -29
-6 -31 -5 -19 10 16 19 52 21 69 4z m280 -40 l3 -48 -39 0 c-26 0 -42 5 -46
15 -6 17 19 45 40 45 8 0 14 5 14 10 0 6 -11 8 -25 4 -14 -3 -25 -2 -25 3 0
17 14 24 45 21 28 -3 30 -6 33 -50z m110 0 c2 -37 0 -48 -12 -48 -10 0 -16 12
-18 38 -2 20 -7 37 -13 37 -5 0 -11 -17 -13 -37 -2 -25 -8 -38 -18 -38 -10 0
-14 13 -14 49 l0 50 43 -2 42 -2 3 -47z m-488 -72 c14 -1 31 -5 37 -9 7 -4 30
-4 50 1 21 4 79 7 128 5 136 -6 135 -6 208 -2 38 2 71 7 73 11 12 19 25 5 22
-24 l-3 -33 -307 -3 c-269 -2 -308 0 -322 14 -23 23 -21 47 4 39 11 -3 28 -2
37 4 10 6 25 8 33 4 8 -3 26 -7 40 -7z"/>
<path d="M1880 985 c0 -128 1 -135 20 -135 11 0 20 5 20 12 0 9 3 9 12 0 19
-19 73 -14 94 9 26 29 26 119 0 148 -21 24 -74 28 -95 9 -11 -11 -13 -4 -9 40
5 49 4 52 -18 52 l-24 0 0 -135z m116 0 c24 -36 12 -93 -22 -101 -35 -9 -54
12 -54 60 0 67 44 90 76 41z"/>
<path d="M1510 1065 c0 -20 -5 -25 -25 -25 -16 0 -25 -6 -25 -15 0 -9 9 -15
25 -15 24 0 25 -3 25 -61 0 -86 10 -99 70 -99 42 0 50 3 50 19 0 15 -7 18 -37
17 l-38 -1 -3 63 -3 62 36 0 c24 0 35 4 35 15 0 10 -11 15 -35 15 -31 0 -35 3
-35 25 0 18 -5 25 -20 25 -15 0 -20 -7 -20 -25z"/>
<path d="M1671 983 c0 -32 5 -74 12 -93 10 -29 17 -36 44 -38 18 -2 41 2 53 8
13 7 20 7 20 0 0 -5 9 -10 20 -10 19 0 20 7 20 95 0 94 0 95 -25 95 -23 0 -24
-3 -27 -77 l-3 -78 -30 0 -30 0 -3 78 c-3 74 -4 77 -27 77 -24 0 -25 -3 -24
-57z"/>
<path d="M2114 1017 c-38 -33 -40 -104 -5 -141 28 -30 94 -36 127 -12 27 20 6
43 -23 25 -26 -16 -69 -5 -83 21 -10 19 -7 20 60 20 64 0 70 2 70 20 0 29 -26
76 -45 84 -33 12 -75 5 -101 -17z m90 -23 c26 -25 19 -34 -29 -34 -46 0 -58
13 -33 38 17 17 44 15 62 -4z"/>
</g>
</svg>
