<?xml version="1.0" standalone="no"?>
<!DOCTYPE svg PUBLIC "-//W3C//DTD SVG 20010904//EN"
 "http://www.w3.org/TR/2001/REC-SVG-20010904/DTD/svg10.dtd">
<svg version="1.0" xmlns="http://www.w3.org/2000/svg"
 width="300.000000pt" height="85.000000pt" viewBox="0 0 300.000000 85.000000"
 preserveAspectRatio="xMidYMid meet">
<metadata>
Created by potrace 1.10, written by Peter Selinger 2001-2011
</metadata>
<g transform="translate(0.000000,85.000000) scale(0.100000,-0.100000)"
fill="#000000" stroke="none">
<path d="M1860 791 c-103 -29 -147 -48 -270 -113 -183 -97 -402 -248 -608
-421 -52 -43 -95 -77 -97 -75 -1 2 23 45 54 97 89 148 190 263 333 376 70 55
122 102 117 104 -19 6 -312 -231 -315 -256 -1 -7 -19 -32 -39 -54 -56 -63
-202 -305 -190 -317 2 -3 42 27 87 65 46 38 115 95 154 127 l72 57 138 -3 139
-3 -83 -66 c-124 -99 -182 -125 -152 -69 9 18 9 24 -1 30 -15 10 -56 -8 -64
-28 -8 -21 0 -25 24 -12 18 9 21 8 21 -9 0 -11 4 -23 10 -26 14 -9 79 28 135
76 l50 44 -37 -45 c-21 -25 -63 -76 -94 -113 -31 -37 -55 -70 -52 -72 3 -3 63
61 134 142 l129 148 79 3 78 3 -62 -51 c-50 -43 -66 -51 -88 -46 -26 6 -26 6
-7 -10 20 -15 20 -16 -10 -39 -16 -13 -26 -27 -23 -31 4 -3 19 3 34 15 36 28
45 27 38 -7 -10 -48 17 -65 95 -60 53 3 83 13 150 46 46 23 85 42 87 42 1 0 4
-10 6 -23 2 -18 9 -22 33 -20 69 5 84 9 104 27 22 20 20 22 36 -29 6 -19 48
-19 85 0 17 9 30 11 30 5 0 -15 71 -12 101 4 24 12 28 12 43 -6 18 -21 60 -18
125 8 18 8 35 14 36 14 1 0 0 -11 -3 -25 -14 -74 87 -88 199 -29 39 21 75 46
81 58 10 18 6 17 -25 -7 -82 -62 -173 -90 -218 -67 -19 11 -25 45 -11 66 4 6
75 56 157 112 136 90 235 175 235 202 0 5 -11 12 -25 16 -64 16 -266 -135
-349 -260 -29 -44 -44 -57 -83 -70 -51 -18 -113 -21 -113 -7 0 5 14 19 30 31
29 21 41 50 20 50 -6 0 -27 -15 -46 -34 -65 -63 -183 -74 -124 -11 14 15 18
25 11 25 -7 0 -22 -12 -34 -26 -28 -36 -84 -59 -103 -43 -8 6 -14 20 -14 31 0
11 -7 26 -15 34 -12 13 -16 12 -30 -10 -17 -26 -62 -46 -101 -46 -26 0 -30 11
-14 40 16 29 -14 32 -52 5 -95 -69 -207 -106 -260 -86 -23 9 -28 17 -28 45 0
25 -5 36 -17 39 -20 4 -9 8 92 26 140 25 375 178 375 244 0 28 -8 31 -60 27
-42 -3 -110 -38 -196 -100 l-82 -59 -66 6 c-36 3 -66 9 -66 13 0 4 12 16 28
25 35 23 82 66 82 77 0 18 -20 5 -83 -52 l-66 -61 -133 3 -133 3 148 98 c232
154 507 287 595 287 15 0 34 5 42 10 25 16 -37 11 -110 -9z m80 -275 c0 -26
-113 -117 -200 -161 -88 -44 -191 -80 -212 -73 -19 7 244 203 313 233 45 19
99 20 99 1z m829 -48 c-57 -52 -288 -213 -294 -206 -3 2 15 27 38 54 104 124
248 225 296 206 11 -4 0 -19 -40 -54z"/>
<path d="M1025 486 c-16 -13 -102 -72 -190 -131 -162 -108 -316 -192 -414
-226 -69 -24 -156 -25 -165 -3 -14 36 -5 66 34 108 48 51 115 83 196 92 74 8
105 23 49 24 -60 0 -147 -24 -199 -54 -98 -57 -137 -160 -74 -195 65 -37 262
34 482 175 103 65 326 222 326 229 0 11 -17 4 -45 -19z"/>
</g>
</svg>
